<?xml version="1.0" encoding="UTF-8"?>
<svg width="640" height="640" version="1.1" viewBox="0 0 640 640" xmlns="http://www.w3.org/2000/svg" xmlns:cc="http://creativecommons.org/ns#" xmlns:dc="http://purl.org/dc/elements/1.1/" xmlns:rdf="http://www.w3.org/1999/02/22-rdf-syntax-ns#">
 <metadata>
  <rdf:RDF>
   <cc:Work rdf:about="">
    <dc:format>image/svg+xml</dc:format>
    <dc:type rdf:resource="http://purl.org/dc/dcmitype/StillImage"/>
   </cc:Work>
  </rdf:RDF>
 </metadata>
 <path d="m320.72 64.139c-14.987-0.12195-29.734 3.7677-42.711 11.266l-148.86 85.914c-25.993 15.009-42.004 42.746-42 72.762v171.86c0.0059 30.006 16.015 57.73 42 72.734l148.86 85.941c25.99 15.003 58.01 15.003 84 0l148.83-85.941c25.985-15.004 41.994-42.729 42-72.734v-171.86c4e-3 -30.015-16.007-57.753-42-72.762l-148.83-85.914c-12.56-7.2568-26.784-11.138-41.289-11.266z" color="#000000" color-rendering="auto" dominant-baseline="auto" fill="#60b6f5" image-rendering="auto" shape-rendering="auto" solid-color="#000000" stop-color="#000000" style="font-feature-settings:normal;font-variant-alternates:normal;font-variant-caps:normal;font-variant-east-asian:normal;font-variant-ligatures:normal;font-variant-numeric:normal;font-variant-position:normal;font-variation-settings:normal;inline-size:0;isolation:auto;mix-blend-mode:normal;shape-margin:0;shape-padding:0;text-decoration-color:#000000;text-decoration-line:none;text-decoration-style:solid;text-indent:0;text-orientation:mixed;text-transform:none;white-space:normal"/>
 <path d="m150 316.67 68.75 95.833 108.33 37.5 95.833-58.333-29.525-20.336z" fill-opacity=".055556"/>
 <path d="m320.72 64.139c-14.987-0.12195-29.734 3.7677-42.711 11.266l-148.86 85.914c-11.419 6.5938-20.91 15.645-27.965 26.266l446.23 248.03c3.5312-9.342 5.4198-19.375 5.4219-29.678v-171.86c4e-3 -30.015-16.007-57.753-42-72.762l-148.83-85.914c-12.56-7.2568-26.784-11.138-41.289-11.266z" color="#000000" color-rendering="auto" dominant-baseline="auto" fill="#72c7fe" image-rendering="auto" shape-rendering="auto" solid-color="#000000" stop-color="#000000" style="font-feature-settings:normal;font-variant-alternates:normal;font-variant-caps:normal;font-variant-east-asian:normal;font-variant-ligatures:normal;font-variant-numeric:normal;font-variant-position:normal;font-variation-settings:normal;inline-size:0;isolation:auto;mix-blend-mode:normal;shape-margin:0;shape-padding:0;text-decoration-color:#000000;text-decoration-line:none;text-decoration-style:solid;text-indent:0;text-orientation:mixed;text-transform:none;white-space:normal"/>
 <path d="m320.83 170.83-131.25 72.916-39.584 72.916 68.75 95.834-72.393 6.5918 77.695 114.37 53.961 31.154c25.99 15.003 58.01 15.003 84 0l148.83-85.941c25.985-15.004 41.994-42.729 42-72.734v-74.154l-59.211-110.87-172.8-50.074z" fill-opacity=".18"/>
 <path d="m417.47 259.76c5.9857-0.0289 11.971-1.5424 17.708-4.4631l58.458-34.392c-2.2275-3.4048-5.9518-6.4682-12.129-9.9264l-148.18-85.029c-4.4964-2.6692-8.0954-4.0834-11.816-4.0728-19.05 18.761-19.452 72.358 0 91.768 4.7804 0.30336 9.5819 1.8537 14.356 4.6688l64.986 37.58c5.4029 2.6216 11.011 3.8925 16.618 3.8654z" fill="#eefcfc"/>
 <path d="m489.58 333.33-187.5 133.33-155.73-47.574 74.922 112.77 56.734 32.754c25.99 15.003 58.01 15.003 84 0l148.83-85.941c17.063-9.8526 29.825-25.19 36.578-43.057l-57.84-102.28z" fill-opacity=".12"/>
 <g>
  <path d="m222.52 380.24c-5.9857 0.0289-11.971 1.5424-17.708 4.4631l-58.458 34.392c2.2275 3.4048 5.9518 6.4682 12.129 9.9264l148.18 85.029c4.4964 2.6692 8.0954 4.0834 11.816 4.0728 12.365-27.335 22.783-55.183 0-91.768-4.7804-0.30336-9.5819-1.8537-14.356-4.6687l-64.986-37.58c-5.4029-2.6216-11.011-3.8925-16.618-3.8654z" fill="#eefcfc"/>
  <path d="m441.66 360.39-105.84 61.291c-5.7626 3.495-11.662 5.0452-17.597 4.6686v91.769c3.5357-0.0101 7.1813-1.3066 11.816-4.0737l148.18-85.028c6.0164-3.3686 9.7046-6.3632 11.951-9.663 0.27833-38.421-20.265-58.4-48.51-58.964z" fill="#d9fbfc"/>
  <path d="m319.98 228.89c-4.013 0.0197-8.0259 1.2054-11.816 3.4928l-61.552 36.287 223.77 129.16c6.9581 4.1332 12.754 9.0269 16.65 15.731 1.2163 1.7703 2.2723 3.6887 3.1394 5.7937l0.1371 0.0721c2.8028-4.1178 3.3557-8.7103 3.3557-15.103v-61.407c-0.10669-10.897-2.1162-16.502-14.936-23.882l-68.335-40.315-77.948-45.954c-2.7284-1.4609-6.0003-2.7441-9.4728-3.6738-0.9961-0.14049-1.9958-0.20705-2.9953-0.20214z" fill="#feffff"/>
  <path d="m198.34 279.61 105.84-61.291c5.7626-3.495 11.662-5.0452 17.597-4.6686v-91.769c-3.5357 0.0101-7.1813 1.3066-11.816 4.0737l-148.18 85.028c-6.0164 3.3686-9.7046 6.3632-11.951 9.663 0.42876 38.421 25.922 59.107 48.51 58.964z" fill="#feffff"/>
  <path d="m320.02 411.11c4.013-0.0197 8.0259-1.2054 11.816-3.4928l61.552-36.286-223.77-129.16c-6.9581-4.1332-12.754-9.0269-16.65-15.731-1.2163-1.7703-2.2723-3.6888-3.1394-5.7937l-0.13711-0.0721c-2.8028 4.1178-3.3557 8.7103-3.3557 15.103v61.407c0.10669 10.897 2.1162 16.502 14.936 23.882l68.335 40.315 77.948 45.954c2.7284 1.4609 6.0003 2.7441 9.4728 3.6738 0.99611 0.14048 1.9958 0.20704 2.9953 0.20214z" fill="#d9fbfc"/>
 </g>
</svg>
